<svg width="512" height="512" viewBox="0 0 512 512" fill="none" xmlns="http://www.w3.org/2000/svg">
  <defs>
    <radialGradient id="bgGlow" cx="50%" cy="38%" r="72%">
      <stop offset="0%" stop-color="#123C64"/>
      <stop offset="52%" stop-color="#111A2E"/>
      <stop offset="100%" stop-color="#070910"/>
    </radialGradient>
    <linearGradient id="cyan" x1="144" y1="104" x2="368" y2="416" gradientUnits="userSpaceOnUse">
      <stop stop-color="#63E6FF"/>
      <stop offset="0.52" stop-color="#16B6FF"/>
      <stop offset="1" stop-color="#7A5CFF"/>
    </linearGradient>
    <linearGradient id="metal" x1="178" y1="112" x2="330" y2="344" gradientUnits="userSpaceOnUse">
      <stop stop-color="#F2FBFF"/>
      <stop offset="0.45" stop-color="#9FEAFF"/>
      <stop offset="1" stop-color="#267DFF"/>
    </linearGradient>
    <filter id="softShadow" x="52" y="52" width="408" height="408" filterUnits="userSpaceOnUse" color-interpolation-filters="sRGB">
      <feDropShadow dx="0" dy="24" stdDeviation="24" flood-color="#00D7FF" flood-opacity="0.22"/>
      <feDropShadow dx="0" dy="8" stdDeviation="12" flood-color="#000000" flood-opacity="0.45"/>
    </filter>
  </defs>

  <rect width="512" height="512" rx="120" fill="url(#bgGlow)"/>
  <path d="M86 320C133 374 170 396 223 352C263 319 290 320 328 352C362 380 394 376 426 334" stroke="#00E7FF" stroke-width="18" stroke-linecap="round" opacity="0.28"/>
  <path d="M90 350C130 388 165 403 208 366C254 326 288 330 333 366C365 392 394 387 422 358" stroke="#7A5CFF" stroke-width="10" stroke-linecap="round" opacity="0.34"/>

  <g filter="url(#softShadow)">
    <rect x="188" y="86" width="136" height="250" rx="68" fill="url(#metal)"/>
    <rect x="216" y="120" width="80" height="174" rx="40" fill="#0C1424" opacity="0.34"/>
    <path d="M167 236V262C167 313 207 354 256 354C305 354 345 313 345 262V236" stroke="url(#cyan)" stroke-width="30" stroke-linecap="round"/>
    <path d="M256 354V411" stroke="url(#cyan)" stroke-width="30" stroke-linecap="round"/>
    <path d="M207 421H305" stroke="url(#cyan)" stroke-width="30" stroke-linecap="round"/>
  </g>

  <path d="M180 206L209 274L236 206L264 274L293 206L322 274" stroke="#EAFBFF" stroke-width="20" stroke-linecap="round" stroke-linejoin="round" opacity="0.96"/>
  <circle cx="384" cy="126" r="15" fill="#63E6FF" opacity="0.9"/>
  <circle cx="416" cy="176" r="7" fill="#7A5CFF" opacity="0.88"/>
  <circle cx="112" cy="174" r="9" fill="#00E7FF" opacity="0.72"/>
</svg>
